<?xml version="1.0" encoding="UTF-8"?>
<svg width="199px" height="237px" viewBox="0 0 199 237" version="1.1" xmlns="http://www.w3.org/2000/svg" xmlns:xlink="http://www.w3.org/1999/xlink">
    <title>点赞</title>
    <g id="页面-1" stroke="none" stroke-width="1" fill="none" fill-rule="evenodd">
        <g id="展示图" transform="translate(-652.000000, -3497.000000)" fill-rule="nonzero">
            <g id="点赞" transform="translate(652.000000, 3497.000000)">
                <path d="M130.644,103.098 C130.644,103.098 133.932,91.614 133.8,84.6 L127.83,82.614 L127.404,82.446 C124.902,81.846 122.544,81.114 120.12,80.334 L119.07,79.998 C116.166,78.834 110.67,78.834 111.078,74.472 C111.121721,74.1971254 111.200357,73.9289574 111.312,73.674 C111.400133,73.4638923 111.508652,73.2629312 111.636,73.074 C111.775218,72.877911 111.927567,72.6914838 112.092,72.516 C114.336,70.752 115.44,68.316 116.514,65.874 L116.988,64.584 C117.174,63.906 117.33,63.24 117.462,62.592 C117.569816,62.0655965 117.353735,61.5255649 116.912557,61.2188288 C116.471379,60.9120927 115.889902,60.8976089 115.434,61.182 C113.548356,62.3590021 111.492066,63.237378 109.338,63.786 C102.432,65.586 92.328,63.666 88.068,59.676 C87.9065755,59.5225062 87.8738082,59.2773211 87.9892606,59.0868246 C88.1047131,58.8963281 88.3372322,58.8119227 88.548,58.884 C93,60.432 102.204,58.8 107.4,57.474 C109.789742,56.9223723 112.0562,55.93156 114.084,54.552 C116.238,52.986 118.128,51.108 118.128,48.444 L117.162,31.968 L117,25.452 C117.003247,25.4321318 117.003247,25.4118682 117,25.392 C116.4,17.502 111.636,18.84 111.636,18.84 C109.284,19.08 98.436,17.19 98.436,17.19 C95.1934235,17.2219768 91.9857434,17.8631057 88.98,19.08 C82.134,22.854 73.152,25.452 73.152,25.452 L71.742,27.81 C73.854,31.356 72.21,38.22 72.21,38.22 L74.568,47.658 C75.984,52.146 78.114,53.562 78.114,53.562 L73.632,54.036 L72.912,51.21 L70.32,46.482 C68.664,44.352 64.632,44.082 64.632,44.082 C58.572,46.758 64.632,53.532 64.632,53.532 C70.194,65.64 73.104,61.524 73.104,61.524 C73.3446481,63.2046874 73.7465009,64.8583116 74.304,66.462 C74.376,66.684 74.454,66.906 74.526,67.122 C75.69,69.18 77.118,70.758 77.91,72.432 C78.0237581,72.6660332 78.1239244,72.9064324 78.21,73.152 C79.542,77.178 78.996,80.46 76.236,82.932 C76.1076667,83.0200031 75.9589505,83.0737062 75.804,83.088 C75.804,83.088 69.6,82.626 72.672,94.2 C72.672,94.2 77.874,121.608 101.262,124.2 L101.364,124.2 C108.636,123.852 124.8,120.972 130.644,103.098 Z" id="路径" fill="#F7C6A6"></path>
                <path d="M65.226,205.68 C65.226,205.68 69.132,212.412 68.658,218.826 C68.658,218.826 67.62,232.026 69.63,235.758 C67.9250476,235.416064 66.271378,234.855429 64.71,234.09 C64.1118592,233.786337 63.530972,233.449823 62.97,233.082 L62.712,231.03 C59.268,229.782 56.454,225.084 56.454,225.084 C54.738,218.826 54.096,191.916 54.096,191.916 C54.096,191.916 58.332,187.218 61.476,186.75 C61.476,186.75 62.556,185.958 63.186,188.778 C64.2805693,191.289306 64.5535663,194.082275 63.966,196.758 C63.7497547,199.78766 64.1792236,202.828709 65.226,205.68 L65.226,205.68 Z" id="路径" fill="#C84241"></path>
                <path d="M115.208667,78.6541528 C116.681299,77.3118482 118.745653,76.8123526 120.678,77.346 L120.678,77.346 L127.974,79.356 C127.974,79.356 133.674,79.224 136.584,81.408 C136.584,81.408 144.576,84.546 149.67,84.312 C149.67,84.312 154.758,83.34 154.026,90.846 L154.026,90.846 L153.246,96.348 L155.382,134.622 C154.896,143.124 156.696,148.02 156.696,148.02 L156.696,148.02 L157.656,157.71 C157.656,157.71 156.918,162.312 158.856,170.07 L158.856,170.07 L160.302,178.05 L163.212,182.658 L161.64,182.934 C159.6,183.258 156.084,183.768 154.344,183.63 C152.76795,182.604365 151.076219,181.76857 149.304,181.14 C149.304,181.14 149.28792,181.080085 149.257827,180.965907 C148.745297,180.837123 148.220132,180.765717 147.69111,180.750851 L142.027021,182.731232 L139.256143,178.758246 L136.809452,174.99919 C136.809452,174.99919 136.707657,173.806797 136.699827,171.601327 L136.699064,171.303946 C136.692899,170.910787 136.554181,166.49605 133.433019,166.86985 C133.433019,166.86985 129.952601,166.86985 129.451029,172.823217 L129.756865,177.101817 C129.756865,177.101817 131.787619,181.032016 131.683634,183.305787 L123.786939,185.206708 C123.786939,185.206708 120.208654,186.795902 120.808093,190.163771 C120.808093,190.163771 121.792886,193.140454 123.285368,193.63555 C123.285368,193.63555 120.227004,198.494817 125.958377,199.980102 C125.537782,200.990045 125.313583,202.070812 125.297771,203.164603 L125.131175,203.14348 C125.275789,204.608798 126.415578,205.812733 127.914,206.004 C127.914,206.004 128.01,207.756 130.242,209.784 C130.242,209.784 131.118,211.752 135.6,211.056 L135.6,211.056 L141.204,210.192 C141.204,210.192 145.008,208.344 145.686,206.886 L145.686,206.886 L148.986,206.592 C148.986,206.592 152.178,205.668 153.978,204.12 C154.431822,203.773651 154.792604,203.320097 155.028,202.8 L155.028,202.8 L162.084,203.196 L162.726,203.226 L161.988,218.226 C161.988,218.226 162.24,225.504 159.33,226.47 L159.33,226.47 L74.286,236.334 C72.7180753,236.263339 71.1587215,236.06265 69.624,235.734 C67.614,232.002 68.652,218.802 68.652,218.802 C69.126,212.388 65.22,205.656 65.22,205.656 C64.1732236,202.804709 63.7437547,199.76366 63.96,196.734 C64.5475663,194.058275 64.2745693,191.265306 63.18,188.754 C62.55,185.934 61.47,186.726 61.47,186.726 C58.326,187.194 54.09,191.892 54.09,191.892 C54.09,191.892 54.732,218.802 56.448,225.06 C56.448,225.06 59.262,229.758 62.706,231.006 L62.706,231.006 L62.964,233.058 C62.4162555,232.7008 61.9144934,232.277627 61.47,231.798 C61.47,231.798 52.998,225.996 53.472,217.998 L53.472,217.998 L53.712,205.398 C53.712,205.398 52.5,197.64 53.472,192.558 L53.472,192.558 L52.272,184.086 C51.865935,179.721378 52.0293055,175.322478 52.758,171 C52.8941347,168.739762 52.7408937,166.471392 52.302,164.25 C52.302,164.25 48.882,160.146 50.082,158.214 L50.082,158.214 L50.082,149.646 C50.082,149.646 54.504,149.04 53.082,124.242 C53.082,124.242 52.4506922,105.486419 52.4229424,98.4876685 L52.422,98.034 L49.8,90.834 L52.2,88.062 C54.0155443,87.39219 55.9293689,87.0272658 57.864,86.982 C57.864,86.982 64.884,87.192 69.738,83.592 C69.738,83.592 74.508,80.418 77.352,81.72 C76.8895503,82.2452073 76.3635037,82.7107888 75.786,83.106 C75.373551,83.3084008 75.0278638,83.6249337 74.79,84.018 C73.5962985,85.8314993 73.7685211,88.2204725 75.21,89.844 C79.206,94.458 92.466,107.808 106.368,100.176 C112.117217,96.9211589 116.02635,91.1783036 116.946,84.636 C117.237409,82.8961088 117.265725,81.1223061 117.03,79.374 L117.03,79.374 L115.02,78.834 Z" id="形状结合" fill="#E35945"></path>
                <path d="M154.344,183.6 C154.344,183.6 162.252,190.638 157.392,199.08 L155.028,202.8 C154.792604,203.320097 154.431822,203.773651 153.978,204.12 C152.178,205.668 148.986,206.592 148.986,206.592 L145.686,206.886 L147.54,204.6 C151.008,200.682 148.14,190.668 148.14,190.668 C147.54,184.872 141.462,182.658 141.462,182.658 L147.018,180.714 C147.787813,180.735647 148.549301,180.879439 149.274,181.14 C151.055212,181.756917 152.757071,182.582671 154.344,183.6 Z" id="路径" fill="#C84241"></path>
                <path d="M148.2,190.656 C148.2,190.656 151.038,200.67 147.6,204.588 L145.746,206.874 C145.068,208.332 141.264,210.18 141.264,210.18 L135.6,211.056 C131.118,211.752 130.242,209.784 130.242,209.784 C128.01,207.756 127.914,206.004 127.914,206.004 C126.26812,205.793911 125.054931,204.362035 125.118,202.704 C125.133511,201.630302 125.353431,200.56939 125.766,199.578 C120.126,198.12 123.144,193.35 123.144,193.35 C121.68,192.864 120.714,189.942 120.714,189.942 C120.114,186.636 123.636,185.076 123.636,185.076 L131.352,183.18 C131.454,180.948 129.462,177.09 129.462,177.09 L129.162,172.89 C129.654,167.046 133.068,167.046 133.068,167.046 C136.272,166.662 136.272,171.426 136.272,171.426 C136.272,173.766 136.38,175.026 136.38,175.026 L138.78,178.716 L141.498,182.616 C141.498,182.616 147.54,184.86 148.2,190.656 Z" id="路径" fill="#F7C6A6"></path>
                <circle id="椭圆形" fill="#FBA37E" cx="85.812" cy="53.07" r="4.65"></circle>
                <path d="M116.946,22.8 C116.498905,19.5328794 115.646333,16.3342237 114.408,13.278 C112.956,9.078 108.948,6.078 108.948,6.078 C103.866,0.48 91.272,-0.000408966613 91.272,-0.000408966613 C82.2433568,-0.0405934573 73.4608829,2.94181471 66.324,8.472 C55.662,18.414 60,30.276 60,30.276 L64.602,44.076 C64.602,44.076 68.634,44.34 70.29,46.476 L72.882,51.204 L73.602,54.03 L73.632,54.03 C73.6203815,54.2402864 73.7014172,54.445117 73.853761,54.5905361 C74.0061048,54.7359552 74.214481,54.8073814 74.424,54.786 C75.264321,54.8061777 76.1045427,54.7418545 76.932,54.594 C76.9838138,54.600224 77.0361862,54.600224 77.088,54.594 C77.509332,54.6648064 77.9160351,54.4057598 78.03,53.994 C78.03,53.994 78.03,53.934 78.03,53.904 C78.0809804,53.8035861 78.107696,53.6926138 78.108,53.58 L78.108,53.55 C78.1055521,53.411064 78.0684278,53.2749415 78,53.154 C77.9350073,52.927123 77.8131583,52.7205993 77.646,52.554 C77.2665499,51.9251735 76.8435144,51.3237012 76.38,50.754 C76.05,50.298 75.726,49.842 75.432,49.362 C75.2943274,49.1149057 75.1701453,48.8605328 75.06,48.6 C73.488,45.42 74.034,41.592 73.404,38.292 C73.404,37.926 73.344,37.566 73.32,37.2 C73.068,33.924 72.84,30.672 72.72,27.192 C72.8201455,26.9338344 72.9426092,26.6848918 73.086,26.448 C73.4872656,25.7501231 74.1261507,25.2198484 74.886,24.954 C75.0034448,24.9053036 75.1176751,24.8491904 75.228,24.786 C79.9657953,23.2838151 84.5632781,21.3705396 88.968,19.068 C91.9737434,17.8511057 95.1814235,17.2099768 98.424,17.178 C98.424,17.178 109.29,19.068 111.624,18.828 C111.624,18.828 116.424,17.49 116.988,25.38 L116.946,22.8 Z" id="路径" fill="#572D1F"></path>
                <path d="M151.2,172.734 C149.484,166.476 147.15,141.534 147.15,141.534 C147.15,141.534 146.166,119.838 149.304,119.37 C149.304,119.37 150.924,131.796 151.554,134.616 C152.648979,137.127075 152.924027,139.919549 152.34,142.596 C152.124308,145.619753 152.553798,148.654817 153.6,151.5 C153.6,151.5 158.196,157.356 157.722,163.77 C157.722,163.77 160.308,178.038 161.646,182.922 C158.722909,182.137636 155.862863,181.134815 153.09,179.922 C152.645058,179.718122 152.215877,179.481471 151.806,179.214 L151.2,172.734 Z" id="路径" fill="#C84241"></path>
                <path d="M164.13,208.698 C173.004,208.698 187.416,203.562 189.03,202.98 C200.922,198.732 199.608,184.212 197.208,176.964 L193.2,162.072 C191.034,150.486 185.97,140.004 185.1,138.27 C184.134,135.78 183.258,130.65 182.898,127.752 C182.58,117.414 177.426,106.086 176.454,104.034 C170.76,88.086 155.484,85.596 154.854,85.494 L149.454,84.678 L147.834,96.078 L149.982,134.592 C149.568,142.59 150.966,147.792 151.47,149.376 C152.568,154.176 158.634,163.176 161.13,166.806 C162.186761,169.628502 162.970349,172.545861 163.47,175.518 L160.908,177.6 L160.746,177.63 C158.847344,177.977971 156.926642,178.192497 154.998,178.272 C154.908,178.272 147.12,180.738 147.048,180.732 L141.492,182.676 L149.292,184.32 C150.018,184.992 155.166,192.078 152.796,196.32 L145.53,207.66 L161.808,208.596 L162.342,208.632 C162.882,208.668 163.494,208.698 164.13,208.698 Z" id="路径" fill="#E35945"></path>
                <path d="M22.836,212.43 C25.296,203.538 27.144,202.374 30.498,200.25 C32.1205901,199.268464 33.6705786,198.171641 35.136,196.968 L38.694,194.01 L36.294,190.038 C36.1099096,189.731557 35.9513736,189.410472 35.82,189.078 C35.2396169,187.562721 34.8642962,185.976689 34.704,184.362 L35.904,179.94 C36.732,176.802 39.366,170.994 40.614,168.378 C41.412,167.364 43.014,165.09 46.242,159.33 L50.04,149.628 C50.04,149.628 55.692,146.736 54.474,125.334 C54.438,123.84 54.768,109.446 54.474,101.628 L52.002,89.574 L49.536,91.518 C45.672,93.816 38.136,97.35 37.236,97.77 C27.978,101.676 21.252,109.368 17.796,120 C16.2971203,124.657052 15.4885361,129.508557 15.396,134.4 C14.9904036,138.371123 13.9066924,142.243259 12.192,145.848 C9.192,151.014 4.392,167.04 3.132,171.234 C-1.482,181.032 0.18,189.414 0.912,192.072 C1.902,203.082 12.666,213.672 13.914,214.872 L20.442,221.112 L22.836,212.43 Z" id="路径" fill="#E35945"></path>
                <path d="M31.68,192.822 L34.11,190.878 L37.002,189.18 L39.186,187.248 C39.186,187.248 42.57,183.858 44.772,187.488 C44.772,187.488 46.206,190.638 42.822,194.514 L39.138,198.378 L42.822,200.814 C42.822,200.814 47.424,205.896 42.102,209.526 C42.102,209.526 42.774,213.45 39.888,215.436 C39.80593,215.752965 39.6913211,216.060599 39.546,216.354 C39.3,217.584 38.652,219.954 37.206,221.07 C36.7375209,221.451138 36.1538908,221.662598 35.55,221.67 C35.55,221.67 34.83,227.718 28.056,225.786 L21.75,223.854 C21.75,223.854 17.634,220.692 18.84,216.816 C18.84,216.816 19.086,215.13 17.64,211.014 C21.6,196.602 25.632,197.856 31.68,192.822 Z" id="路径" fill="#F7C6A6"></path>
                <path d="M64.2,172.11 C64.2,172.11 68.106,178.848 67.632,185.262 C67.632,185.262 62.49,199.62 64.5,203.346 C62.424,202.914 62.394,201.876 61.164,201.258 C60.462,200.91 60.834,200.094 60.372,199.788 L58.878,197.664 C55.44,196.416 54.078,191.916 54.078,191.916 C52.368,185.658 51.0118614,157.044 51.0118614,157.044 C51.0118614,157.044 50.94,142.962 54.078,142.494 C54.078,142.494 55.878,146.994 57.198,150.684 C57.8721081,152.646344 58.7215375,154.544005 59.736,156.354 C60.4727937,157.595799 60.8854498,159.002956 60.936,160.446 C61.0083378,162.395413 61.3807093,164.322031 62.04,166.158 C62.646,167.952 63.426,170.13 64.2,172.11 Z" id="路径" fill="#C84241"></path>
                <path d="M164.64,172.716 C166.44,171.516 171.114,169.596 171.114,169.596 C171.114,169.596 178.734,165.294 179.202,166.23 C178.617684,166.788592 177.985233,167.294553 177.312,167.742 C176.645032,168.34376 175.805125,168.719618 174.912,168.816 C173.943124,169.061314 173.037228,169.50915 172.254,170.13 C171.000968,170.875515 169.695548,171.529227 168.348,172.086 C167.538497,172.393163 166.789143,172.839932 166.134,173.406 C165.28362,174.16616 164.392288,174.879225 163.464,175.542 C163.277134,174.662285 163.138924,173.772935 163.05,172.878 C163.074,172.62 164.64,172.716 164.64,172.716 Z" id="路径" fill="#C84241"></path>
                <path d="M176.238,171.12 C176.616001,171.043134 176.99895,170.99301 177.384,170.97 C179.082,170.868 184.056,170.616 184.062,171.126 C183.608341,171.273043 183.142507,171.379462 182.67,171.444 C182.161754,171.59089 181.620169,171.574096 181.122,171.396 C180.546426,171.273691 179.951574,171.273691 179.376,171.396 C178.508205,171.47481 177.635638,171.486845 176.766,171.432 C176.255086,171.388924 175.740602,171.439762 175.248,171.582 C174.620018,171.75937 173.983138,171.903569 173.34,172.014 C173.436,171.738 175.266,171.324 176.238,171.12 Z" id="路径" fill="#C84241"></path>
                <path d="M166.986,179.79 C167.181876,179.963864 167.366264,180.150255 167.538,180.348 C168.288,181.23 170.466,183.822 170.19,184.038 C169.926831,183.860096 169.679873,183.659317 169.452,183.438 C169.167362,183.219074 168.957713,182.917179 168.852,182.574 C168.68084,182.211272 168.433165,181.889909 168.126,181.632 C167.729091,181.194198 167.366045,180.726851 167.04,180.234 C166.850962,179.940097 166.611241,179.682092 166.332,179.472 C165.979198,179.203967 165.640731,178.917571 165.318,178.614 C165.498,178.524 166.476,179.346 166.986,179.79 Z" id="路径" fill="#C84241"></path>
                <path d="M168.186,163.662 C168.080841,164.271763 167.932467,164.873279 167.742,165.462 C166.896,168.03 164.346,175.542 163.584,175.254 C163.632642,174.497096 163.74911,173.746085 163.932,173.01 C164.012415,172.169096 164.356856,171.375202 164.916,170.742 C165.428545,169.958069 165.769976,169.074845 165.918,168.15 C166.315413,166.818388 166.812828,165.518692 167.406,164.262 C167.764883,163.529739 167.990408,162.739385 168.072,161.928 C168.179307,160.894108 168.341536,159.866656 168.558,158.85 C168.918,159.156 168.456,162.108 168.186,163.662 Z" id="路径" fill="#C84241"></path>
                <path d="M153.078,110.706 C152.965384,111.348488 152.80698,111.982103 152.604,112.602 C151.71,115.308 149.004,123.246 148.218,122.94 C148.268537,122.130724 148.391021,121.327554 148.584,120.54 C148.665808,119.64993 149.029437,118.809169 149.622,118.14 C150.164791,117.311395 150.524784,116.376639 150.678,115.398 C151.097632,113.994218 151.62314,112.624289 152.25,111.3 C152.627591,110.52542 152.867182,109.690914 152.958,108.834 C153.066082,107.741191 153.236358,106.655431 153.468,105.582 C153.852,105.948 153.366,109.068 153.078,110.706 Z" id="路径" fill="#C84241"></path>
                <path d="M148.698,111.06 C148.835243,111.696722 148.927472,112.342319 148.974,112.992 C149.166,115.836 149.67,124.2 148.812,124.224 C148.56029,123.463191 148.37362,122.682388 148.254,121.89 C147.998244,121.033409 148.01924,120.117965 148.314,119.274 C148.504537,118.30326 148.486129,117.303071 148.26,116.34 C148.118813,114.882431 148.086724,113.416351 148.164,111.954 C148.222625,111.092407 148.129201,110.227218 147.888,109.398 C147.575831,108.345098 147.323428,107.275392 147.132,106.194 C147.6,106.356 148.344,109.428 148.698,111.06 Z" id="路径" fill="#C84241"></path>
                <path d="M167.58,177.366 C168.897001,178.181186 170.331875,178.788326 171.834,179.166 C171.834,179.166 175.884,179.388 176.1,178.362 C176.1,178.362 175.05,178.626 173.904,178.782 C172.704335,178.892489 171.498238,178.655019 170.43,178.098 C169.884,177.774 169.266,177.462 168.714,177.198 C168.537992,177.108767 168.377856,176.991198 168.24,176.85 C167.46909,176.103388 166.426386,175.704515 165.354,175.746 C165.354,175.746 165.024,176.07 163.446,175.53 C163.122,176.094 161.646,176.622 161.838,177.036 C161.886,177.144 163.638,176.514 164.454,176.466 C165.576318,176.311415 166.711699,176.638301 167.58,177.366 L167.58,177.366 Z" id="路径" fill="#C84241"></path>
            </g>
        </g>
    </g>
</svg>