<?xml version="1.0" encoding="utf-8"?>
<!-- Generator: Adobe Illustrator 23.0.2, SVG Export Plug-In . SVG Version: 6.00 Build 0)  -->
<svg version="1.1" id="图层_1" xmlns="http://www.w3.org/2000/svg" xmlns:xlink="http://www.w3.org/1999/xlink" x="0px" y="0px"
	 viewBox="0 0 1133.86 1133.86" style="enable-background:new 0 0 1133.86 1133.86;" xml:space="preserve">
<style type="text/css">
	.st0{fill:#102222;}
	.st1{fill:#EED3B7;}
	.st2{fill:#181929;}
	.st3{fill:#211F22;}
	.st4{fill:#253033;}
	.st5{fill:#FFFFFF;}
	.st6{fill:#BB8D6F;}
	.st7{fill:#E8C7B9;}
	.st8{fill:#A68C55;}
	.st9{fill:#CF4426;}
</style>
<g>
	<path class="st0" d="M401.72,202.68c0,0-5.15-19.68-47.25,37.68s-56.23,99.22-48.89,105.62s71.32-69.92,71.32-69.92l23.83-52.41
		L401.72,202.68z"/>
	<path class="st1" d="M393.98,298.46c0,0-25.87-89.98-19.95-116.35c0,0-28.99-42.36-27.22-68.73c0,0,3.47-26.37,17.42-4
		c13.94,22.38,13.94,22.38,13.94,22.38s7.4-38.76,11.83-11.59s1.78,63.94,1.78,63.94s13.61,62.61,25.74,98.17L393.98,298.46z"/>
	<path class="st2" d="M806.13,410.89c0,0,64.27,56.44,25.47,192.64C831.6,603.53,764.02,460.45,806.13,410.89z"/>
	<g>
		<path class="st3" d="M724.13,775.94c0,0,7.01-11.06,13.78-5.17c6.77,5.89,31.49,28.13,28.04,69.37
			c-3.45,41.24-40.4-28.53-39.77-42.32C726.82,784.03,724.13,775.94,724.13,775.94z"/>
		<path class="st1" d="M597.23,843.66c0,0,7.6,37.19,72.88-3.85l57.04-35.91c0,0,43.73,75.02,22.18-11.54
			c0,0-10.93-25.57-23.29-18.35l-91.85,41.91L595.1,704.2l-44.87,15.89l46.99,124.86"/>
	</g>
	<path class="st1" d="M752.18,435.72c0,0,84.23-38.92,97.51-35.34c0,0,26.2-20.56,30.89-13.93c4.69,6.63-9.89,13.29-9.89,13.29
		s-3.56,22.47,46.8,8.1c0,0,26.51-1.74-20.43,21.94c0,0-25.07,3.19-48.49-6.05L751,462.06L752.18,435.72z"/>
	<g>
		<path class="st3" d="M305.38,930.23c0,0-14.34-2.93-13.87,23.2c0.48,26.13,21.39,88,33.11,41.68c0,0,3.01-21.96-3.49-30.94
			L305.38,930.23z"/>
		<path class="st1" d="M441.53,723.94c0,0-67.16,161.36-137.5,206.25l-1.73,2.62c-2.17,3.29-3.24,7.21-3.04,11.16l1.39,28.09
			c0.34,6.95,2.86,13.62,7.18,19.04l0,0c0,0,18.7,14.43,15.84-18.27c0,0-3.64-19.4,13.31-22.92c0,0,67.28-61.42,89.53-93.45
			c19.42-27.94,55.68-132.52,55.68-132.52H441.53z"/>
	</g>
	<polygon class="st1" points="540.55,354.64 530.09,398.88 539.36,430.38 558.01,422.65 590.45,354.64 	"/>
	<path id="XMLID_4_" class="st4" d="M447.78,455.46c0,0-145.45,273.45-74.83,311.66c115.75,62.63,291.66-67.46,291.66-67.46
		s-8.64-145.71-59.02-204.57c0,0,142.05,98.51,226.02,108.45c0,0-64.76-141.34-25.47-192.64c0,0-123.55,29.82-209.1-10.58
		l-56.71,32.47l-23.52-59.4l-60.14-20.19c0,0-37.07-30.78-44.36-108.04c0,0-0.95-42.64-13.63-45.52c0,0-30.66,104.67-93.09,146.35
		C305.58,345.97,333.68,447.43,447.78,455.46z"/>
	<polygon class="st5" points="513.57,373.83 534.37,365.54 543.24,425.17 600.67,385.13 604.24,408.7 523.2,476.98 509.42,377.44 	
		"/>
	<path class="st6" d="M549.46,363.83c0,0-1.19,18.59,25.67,11.22c26.85-7.37,18.3-17.95,18.3-17.95L549.46,363.83z"/>
	<polygon class="st7" points="515.21,372.85 526.45,464.4 603.91,403.47 614.8,408.12 518.21,492.61 501.22,368.15 	"/>
	<g>
		<g id="XMLID_3_">
			<g>
				<path class="st1" d="M543.51,273.39c7.24,1.53,19.81,2.45,31.31-5.26c0,0-8.6,11.7,23.38,27.46c0,0,27.94,7.61-24.18,66.07
					c0,0-2.35,2.56-5.12,7.35h-0.02c-2.49,0.68-9.83,2.15-18.97-1.13c-8.95-3.22-19.62-10.98-29.12-28.52
					C507.55,314.89,526.81,289.35,543.51,273.39z"/>
				<path class="st8" d="M520.8,339.37c9.49,17.54,20.16,25.3,29.12,28.52c4.28,15.35-18.9,10.91-18.9,10.91
					c-97.83-25.28,4.56-129.96,4.56-129.96c47.84-42.68,94.33-2.45,94.33-2.45c45.68,33.71,25.26,92.44,25.26,92.44
					s-24.18,53.57-3.76,86.74s-17.46,39.42-17.46,39.42s-54.28,4.9-69.07-36.16c-10.15-28.18-2.05-49.31,4-59.8h0.02
					c2.77-4.78,5.12-7.35,5.12-7.35c52.12-58.46,24.18-66.07,24.18-66.07c-31.98-15.77-23.38-27.46-23.38-27.46
					c-11.5,7.7-24.07,6.78-31.31,5.26C526.81,289.35,507.55,314.89,520.8,339.37z"/>
			</g>
			<g>
			</g>
		</g>
	</g>
	<ellipse transform="matrix(0.7071 -0.7071 0.7071 0.7071 -54.6175 469.999)" cx="540.03" cy="300.93" rx="6.56" ry="4.63"/>
	<ellipse transform="matrix(0.7071 -0.7071 0.7071 0.7071 -56.7787 500.6859)" cx="575.99" cy="318.88" rx="6.56" ry="4.63"/>
	<g>
		<path d="M543.04,326.17c-0.55-0.87-0.91-1.64-1.26-2.52c-0.33-0.87-0.6-1.8-0.69-2.81c-0.08-1.01,0.05-2.2,0.69-3.19
			c0.64-0.99,1.62-1.56,2.51-1.85c1.82-0.57,3.52-0.45,5.16-0.29c1.64,0.19,3.24,0.54,4.81,0.93c-1.62-0.06-3.24-0.07-4.82,0.07
			c-1.56,0.15-3.17,0.43-4.35,1.12c-0.58,0.34-0.97,0.78-1.12,1.21c-0.15,0.43-0.1,0.95,0.07,1.52c0.36,1.13,1.25,2.43,2.14,3.35
			L543.04,326.17z"/>
	</g>
	<path class="st9" d="M535.97,334.59c4.26,2.31,10.44,4.64,17.83,4.39c3.03-0.11,4.18,3.92,1.59,5.49
		c-6.23,3.78-14.9,5.34-22.22-6.95C532.08,335.68,534.11,333.57,535.97,334.59z"/>
</g>
</svg>
